<svg width="40" height="40" viewBox="0 0 40 40" fill="none" xmlns="http://www.w3.org/2000/svg">
<g opacity="0.4">
<path fill-rule="evenodd" clip-rule="evenodd" d="M12.8667 4.65L9.1667 9.58333C8.97265 9.84207 8.72102 10.0521 8.43173 10.1967C8.14245 10.3414 7.82347 10.4167 7.50004 10.4167H6.66671C5.45113 10.4167 4.28534 10.8996 3.4258 11.7591C2.56626 12.6186 2.08337 13.7844 2.08337 15V31.6667C2.08337 32.8822 2.56626 34.048 3.4258 34.9076C4.28534 35.7671 5.45113 36.25 6.66671 36.25H33.3334C34.5489 36.25 35.7147 35.7671 36.5743 34.9076C37.4338 34.048 37.9167 32.8822 37.9167 31.6667V15C37.9167 13.7844 37.4338 12.6186 36.5743 11.7591C35.7147 10.8996 34.5489 10.4167 33.3334 10.4167H32.5C32.1766 10.4167 31.8576 10.3414 31.5683 10.1967C31.2791 10.0521 31.0274 9.84207 30.8334 9.58333L27.1334 4.65C26.9238 4.37056 26.652 4.14375 26.3396 3.98754C26.0272 3.83133 25.6827 3.75 25.3334 3.75H14.6667C13.9584 3.75 13.2917 4.08333 12.8667 4.65ZM20 13.75C18.9604 13.75 17.931 13.9548 16.9705 14.3526C16.01 14.7505 15.1372 15.3336 14.4021 16.0687C13.667 16.8039 13.0838 17.6766 12.686 18.6371C12.2881 19.5976 12.0834 20.627 12.0834 21.6667C12.0834 22.7063 12.2881 23.7357 12.686 24.6962C13.0838 25.6567 13.667 26.5295 14.4021 27.2646C15.1372 27.9997 16.01 28.5829 16.9705 28.9807C17.931 29.3786 18.9604 29.5833 20 29.5833C22.0997 29.5833 24.1133 28.7493 25.598 27.2646C27.0826 25.7799 27.9167 23.7663 27.9167 21.6667C27.9167 19.567 27.0826 17.5534 25.598 16.0687C24.1133 14.5841 22.0997 13.75 20 13.75Z" fill="#C8C8D1"/>
</g>
</svg>
