<svg width="29" height="30" viewBox="0 0 29 30" fill="none" xmlns="http://www.w3.org/2000/svg">
<path d="M21.75 18.75H8.45831L6.64581 7.5H25.375L21.75 18.75Z" fill="white"/>
<path d="M3.625 3.75H6.04167L6.64583 7.5M6.64583 7.5L8.45833 18.75H21.75L25.375 7.5H6.64583Z" stroke="white" stroke-width="2" stroke-linecap="round" stroke-linejoin="round"/>
<path d="M9.66665 26.25C10.334 26.25 10.875 25.6904 10.875 25C10.875 24.3096 10.334 23.75 9.66665 23.75C8.9993 23.75 8.45831 24.3096 8.45831 25C8.45831 25.6904 8.9993 26.25 9.66665 26.25Z" stroke="white" stroke-width="2" stroke-linecap="round" stroke-linejoin="round"/>
<path d="M20.5416 26.25C21.209 26.25 21.75 25.6904 21.75 25C21.75 24.3096 21.209 23.75 20.5416 23.75C19.8743 23.75 19.3333 24.3096 19.3333 25C19.3333 25.6904 19.8743 26.25 20.5416 26.25Z" stroke="white" stroke-width="2" stroke-linecap="round" stroke-linejoin="round"/>
</svg>
