<svg width="30" height="30" viewBox="0 0 30 30" fill="none" xmlns="http://www.w3.org/2000/svg">
<path fill-rule="evenodd" clip-rule="evenodd" d="M15 26.25L15.885 27.1325C15.7689 27.2491 15.6308 27.3416 15.4789 27.4047C15.3269 27.4679 15.1639 27.5004 14.9994 27.5004C14.8348 27.5004 14.6719 27.4679 14.5199 27.4047C14.3679 27.3416 14.2299 27.2491 14.1138 27.1325L14.1062 27.1237L14.085 27.1025L14.0075 27.0237C13.5669 26.5698 13.1335 26.1089 12.7075 25.6413C11.6384 24.469 10.6143 23.2564 9.6375 22.0062C8.5225 20.5687 7.3825 18.9438 6.51625 17.3388C5.66875 15.765 5 14.06 5 12.5C5 6.82625 9.49 2.5 15 2.5C20.51 2.5 25 6.82625 25 12.5C25 14.06 24.3313 15.765 23.4838 17.3375C22.6175 18.945 21.4788 20.5687 20.3625 22.0062C18.996 23.7552 17.5372 25.43 15.9925 27.0237L15.915 27.1025L15.8938 27.1237L15.8862 27.1312L15 26.25ZM15 16.25C15.9946 16.25 16.9484 15.8549 17.6517 15.1517C18.3549 14.4484 18.75 13.4946 18.75 12.5C18.75 11.5054 18.3549 10.5516 17.6517 9.84835C16.9484 9.14509 15.9946 8.75 15 8.75C14.0054 8.75 13.0516 9.14509 12.3483 9.84835C11.6451 10.5516 11.25 11.5054 11.25 12.5C11.25 13.4946 11.6451 14.4484 12.3483 15.1517C13.0516 15.8549 14.0054 16.25 15 16.25Z" fill="white"/>
</svg>
