<?xml version="1.0" encoding="utf-8"?>
<svg width="32" height="32" viewBox="0 0 32 32" fill="none" xmlns="http://www.w3.org/2000/svg">
  <path d="M 16.035 2.693 C 17.851 2.693 19.593 3.396 20.879 4.648 C 22.163 5.902 22.885 7.601 22.885 9.373 C 22.885 11.143 22.163 12.842 20.879 14.096 C 19.593 15.348 17.851 16.052 16.035 16.052 C 14.218 16.052 12.475 15.348 11.19 14.096 C 9.906 12.842 9.184 11.143 9.184 9.373 C 9.184 7.601 9.906 5.902 11.19 4.648 C 12.475 3.396 14.218 2.693 16.035 2.693 Z M 16.035 19.392 C 23.604 19.392 29.736 22.381 29.736 26.071 L 29.736 29.411 L 2.334 29.411 L 2.334 26.071 C 2.334 22.381 8.465 19.392 16.035 19.392 Z" style="fill: rgb(255, 255, 255);"/>
</svg>