<svg width="35" height="35" viewBox="0 0 35 35" fill="none" xmlns="http://www.w3.org/2000/svg">
<path d="M17.5003 9.47916C18.4673 9.47916 19.3946 9.86328 20.0783 10.547C20.762 11.2307 21.1462 12.1581 21.1462 13.125C21.1462 13.6038 21.0519 14.0779 20.8686 14.5202C20.6854 14.9625 20.4169 15.3644 20.0783 15.703C19.7398 16.0415 19.3379 16.3101 18.8955 16.4933C18.4532 16.6765 17.9791 16.7708 17.5003 16.7708C16.5334 16.7708 15.6061 16.3867 14.9223 15.703C14.2386 15.0193 13.8545 14.0919 13.8545 13.125C13.8545 12.1581 14.2386 11.2307 14.9223 10.547C15.6061 9.86328 16.5334 9.47916 17.5003 9.47916ZM17.5003 2.91666C20.2077 2.91666 22.8043 3.99218 24.7187 5.90662C26.6331 7.82105 27.7087 10.4176 27.7087 13.125C27.7087 20.7812 17.5003 32.0833 17.5003 32.0833C17.5003 32.0833 7.29199 20.7812 7.29199 13.125C7.29199 10.4176 8.36751 7.82105 10.2819 5.90662C12.1964 3.99218 14.7929 2.91666 17.5003 2.91666ZM17.5003 5.83333C15.5665 5.83333 13.7118 6.60156 12.3443 7.96901C10.9769 9.33646 10.2087 11.1911 10.2087 13.125C10.2087 14.5833 10.2087 17.5 17.5003 27.2854C24.792 17.5 24.792 14.5833 24.792 13.125C24.792 11.1911 24.0238 9.33646 22.6563 7.96901C21.2889 6.60156 19.4342 5.83333 17.5003 5.83333Z" fill="white"/>
</svg>
